<?xml version="1.0" encoding="UTF-8"?>
<!DOCTYPE svg PUBLIC "-//W3C//DTD SVG 1.1//EN" "http://www.w3.org/Graphics/SVG/1.1/DTD/svg11.dtd">
<!-- Creator: CorelDRAW X8 -->
<svg xmlns="http://www.w3.org/2000/svg" xml:space="preserve" width="71.5432mm" height="84.6666mm" version="1.1" shape-rendering="geometricPrecision" text-rendering="geometricPrecision" image-rendering="optimizeQuality" fill-rule="evenodd" clip-rule="evenodd"
viewBox="0 0 7154 8467"
 xmlns:xlink="http://www.w3.org/1999/xlink">
 <g id="Слой_x0020_1">
  <metadata id="CorelCorpID_0Corel-Layer"/>
  <g id="_1750781976112">
   <path fill="#002E63" fill-rule="nonzero" d="M4571 8031c214,123 413,268 398,436 187,-81 244,-340 56,-520 -13,-11 -40,-34 -68,-54 605,-256 1126,-672 1509,-1195 6,-9 45,-74 51,-82l-862 0c-81,179 -473,319 -724,235 38,73 59,157 57,253 -5,278 -215,478 -442,501 -337,35 -493,-334 -323,-436 100,215 444,162 435,-57 -19,-491 -821,-392 -816,205 3,465 514,596 729,714zm-995 -454l0 0c100,259 297,431 549,553 1,0 -1,1 -3,1 -178,29 -360,44 -546,45 -185,-1 -368,-16 -546,-45 -1,0 -3,-1 -3,-1 253,-122 450,-294 549,-553zm-994 454l0 0c-214,123 -413,268 -399,436 -186,-81 -243,-340 -56,-520 14,-11 41,-34 68,-54 -604,-256 -1125,-672 -1508,-1195 -7,-9 -46,-74 -52,-82l863 0c81,179 473,319 723,235 -38,73 -58,157 -57,253 6,278 216,478 443,501 337,35 493,-334 323,-436 -100,215 -444,162 -436,-57 20,-491 822,-392 817,205 -4,465 -514,596 -729,714zm994 -1019l0 0c61,-196 211,-334 336,-396l-336 0 -336 0c126,62 276,200 336,396z"/>
   <path fill="#8C6B47" fill-rule="nonzero" d="M5633 6520l-187 0 -262 -302c15,-15 31,-31 46,-47l403 349zm516 0l0 0 -289 0 -513 -479c14,-17 28,-34 41,-52l761 531zm494 -112l0 0c-23,38 -47,75 -71,112l-190 0 -891 -673c12,-18 24,-36 35,-55l1117 616zm175 -330l0 0c-34,74 -72,148 -112,219l-1092 -657c10,-20 19,-39 29,-59l1175 497zm141 -347l0 0c-27,78 -57,155 -89,230l-1156 -540c8,-21 16,-41 23,-62l1222 372zm103 -360l0 0c-19,80 -40,160 -64,238l-1208 -417c6,-21 12,-42 17,-63l1255 242zm65 -369l0 0c-10,82 -23,164 -39,244l-1246 -289c4,-21 7,-43 10,-64l1275 109zm26 -373l0 0c-2,83 -6,165 -13,246l-1271 -157c2,-21 3,-43 3,-65l1281 -24zm-13 -374l0 0c7,81 11,163 12,246l-1280 -23c-1,-22 -3,-44 -4,-65l1272 -158zm-52 -371l0 0c15,80 28,161 38,243l-1277 111c-3,-21 -7,-42 -11,-64l1250 -290zm-91 -363l0 0c24,78 45,157 64,238l-1260 244c-5,-21 -11,-42 -17,-63l1213 -419zm-128 -352l0 0c32,75 62,152 89,230l-1229 375c-7,-20 -15,-40 -23,-60l1163 -545zm-164 -336l0 0c40,71 77,145 112,219l-1184 502c-9,-20 -19,-39 -29,-58l1101 -663zm-4553 3545l0 0 -100 142 -124 0 172 -184c17,14 34,28 52,42zm-181 -160l0 0 -262 302 -187 0 402 -349c15,16 31,32 47,47zm-164 -177l0 0 -513 479 -289 0 761 -531c13,18 27,35 41,52zm-144 -194l0 0 -891 673 -190 0c-24,-37 -48,-74 -70,-112l1116 -616c11,19 23,37 35,55zm-122 -207l0 0 -1093 657c-40,-71 -77,-145 -112,-219l1175 -497c10,20 20,39 30,59zm-101 -219l0 0 -1156 540c-32,-75 -62,-152 -89,-230l1222 -372c8,21 15,41 23,62zm-76 -229l0 0 -1208 417c-24,-78 -45,-158 -64,-238l1255 -242c5,21 11,42 17,63zm-52 -235l0 0 -1246 289c-16,-80 -28,-162 -38,-244l1274 -109c3,21 6,43 10,64zm-27 -239l0 0 -1271 157c-7,-81 -11,-163 -12,-246l1280 24c0,22 1,44 3,65zm-2 -240l0 0 -1281 23c2,-83 6,-165 13,-246l1271 158c-1,21 -2,43 -3,65zm22 -240l0 0 -1277 -111c10,-82 23,-163 39,-243l1249 290c-4,22 -7,43 -11,64zm48 -235l0 0 -1260 -244c19,-81 41,-160 64,-238l1213 419c-6,21 -12,42 -17,63zm72 -229l0 0 -1228 -375c27,-78 57,-155 89,-230l1163 545c-9,20 -16,40 -24,60zm96 -220l0 0 -1183 -502c35,-74 72,-147 112,-219l1100 663c-10,19 -19,38 -29,58zm4143 -288l0 0 1 4c-107,259 -285,351 -540,427 20,295 108,552 224,820 64,464 -547,771 -864,965 -247,152 -500,296 -742,456 -254,167 -431,360 -622,594 -77,-233 -181,-456 -107,-703 42,-141 132,-257 188,-391 -106,-364 -173,-735 -155,-1115l-953 649c-334,-504 -533,-1065 -543,-1676 -345,-191 -691,-382 -1037,-574 42,-70 87,-139 135,-206l903 683c2,-66 7,-133 13,-198 -280,-197 -561,-393 -841,-589 49,-65 101,-129 155,-191l701 656c9,-64 19,-126 32,-189 -216,-187 -431,-375 -647,-562 56,-60 114,-118 174,-174l507 585c15,-60 31,-119 49,-177 -154,-165 -307,-329 -461,-494 62,-54 126,-105 192,-155l329 472c20,-54 42,-108 66,-161 -97,-128 -195,-257 -292,-386 67,-47 136,-92 207,-135l181 329c26,-46 56,-89 86,-132 -52,-87 -105,-174 -157,-261 72,-39 145,-77 220,-112l128 304 227 154c-79,-170 -159,-340 -238,-510 75,-32 152,-62 230,-88l227 748 217 147c-107,-311 -215,-623 -322,-935 78,-24 158,-45 238,-63l209 1083 65 45c-7,-151 -2,-302 14,-451 -55,-235 -109,-470 -163,-704 81,-15 162,-28 243,-38l20 225c13,-50 27,-99 41,-148 -58,-139 -152,-259 -192,-406 -67,-242 36,-461 111,-688 218,267 426,473 718,657 296,187 601,360 896,550 2,-8 4,-15 6,-22 78,27 155,56 230,88l-32 69c37,27 72,55 106,85 15,-34 29,-68 43,-102 75,35 148,73 220,112l-98 164c31,40 59,84 82,129 42,-76 85,-152 127,-229 70,43 139,88 206,135l-274 364 -2 15c-70,162 -141,324 -180,497 187,-267 373,-534 560,-801 65,50 129,101 191,155l-783 839c-5,43 -9,87 -12,130 33,10 66,20 99,30 264,-304 527,-609 791,-913 60,56 118,114 174,174l-884 768c57,21 112,48 162,83 269,-252 539,-504 808,-756 54,62 106,126 156,191l-897 627c38,42 71,88 95,139 293,-221 585,-442 877,-663 47,68 92,137 134,207l-975 540c1,1 1,3 -1,4zm-438 3254l0 0 -124 0 -99 -142c17,-14 34,-28 51,-42l172 184z"/>
   <path fill="white" fill-rule="nonzero" d="M5583 3266c-43,143 -155,242 -289,297 -30,13 -61,23 -92,33 -93,30 -137,17 -152,104 -21,121 33,298 66,415 57,210 217,410 122,626 -108,246 -349,397 -565,536 -531,342 -1118,605 -1524,1102 -63,-193 -121,-358 -53,-558 41,-120 159,-239 178,-362 10,-64 -29,-145 -46,-209 -30,-117 -57,-236 -75,-356 -37,-238 -42,-479 -21,-719 -339,230 -678,461 -1017,692 -642,-966 -639,-2236 0,-3202 339,231 678,462 1017,693 -20,-233 -16,-467 18,-698 17,-120 42,-238 72,-355 18,-69 63,-162 53,-231 -18,-118 -132,-236 -174,-350 -76,-203 -17,-373 48,-570 449,548 1120,821 1696,1213 176,120 385,301 427,523 22,121 -50,225 -93,335 -42,110 -75,223 -97,339 -17,92 -84,310 16,341 70,21 142,40 209,69 128,56 236,156 276,292z"/>
   <path fill="#002E63" fill-rule="nonzero" d="M5474 3265c-23,-59 -88,-135 -127,-158 -98,-64 -244,-92 -404,-148 9,-493 122,-731 232,-986 15,-116 -113,-359 -450,-564 -575,-384 -1291,-730 -1542,-1054 -117,320 164,548 196,741 -164,550 -202,902 -131,1462l-1110 -756c-13,21 -42,60 -56,83 -200,339 -358,878 -361,1380l0 1 0 2c3,502 161,1040 361,1379 14,23 43,62 56,83l1110 -756c-71,560 -33,912 131,1462 -32,194 -313,422 -196,742 251,-325 967,-670 1542,-1055 337,-205 465,-448 450,-563 -110,-256 -223,-494 -232,-987 160,-55 306,-83 404,-148 39,-22 104,-98 127,-157l-1 -2 1 -1z"/>
   <path fill="white" fill-rule="nonzero" d="M3487 1531c132,77 366,218 521,305 16,-37 26,-126 -12,-175 -107,-153 -309,-351 -369,-451 -27,-60 -60,-188 -65,-275 291,193 647,393 957,593 67,41 189,111 200,203 -32,83 -39,102 -49,204 116,37 183,50 228,136 -45,87 -112,100 -228,136 10,103 17,121 49,205 -11,92 -133,161 -200,202 -310,200 -666,401 -957,594 5,-87 38,-215 65,-275 60,-101 262,-298 369,-451 38,-49 28,-139 12,-175 -155,87 -389,228 -521,305 -38,-168 -61,-349 -59,-541 -2,-191 21,-372 59,-540zm480 1734l0 0 635 -389 135 -99c14,235 -39,292 -63,350 135,30 217,71 236,138l-1 1 1 2c-19,67 -101,107 -236,137 24,59 77,115 63,350l-135 -99 -635 -388 26 -2 -26 -1zm-480 1736l0 0c132,-77 366,-219 521,-305 16,36 26,126 -12,175 -107,152 -309,350 -369,451 -27,59 -60,188 -65,275 291,-194 647,-394 957,-594 67,-41 189,-110 200,-203 -32,-83 -39,-102 -49,-204 116,-37 183,-50 228,-136 -45,-86 -112,-99 -228,-136 10,-102 17,-121 49,-205 -11,-92 -133,-161 -200,-202 -310,-200 -666,-400 -957,-594 5,87 38,216 65,275 60,101 262,299 369,451 38,50 28,139 12,175 -155,-87 -389,-228 -521,-305 -38,168 -61,350 -59,541 -2,192 21,373 59,541zm-1485 -2297l0 0c133,80 371,226 525,316 12,-15 51,-96 -12,-181 -106,-158 -244,-393 -303,-497 -30,-67 -32,-146 -6,-238l833 570c67,42 188,114 200,209 -35,86 -43,134 -49,240 116,38 182,51 228,140l-1 2 1 1 -1 0 1 1 -1 1 1 1c-46,89 -112,103 -228,140 6,106 14,154 49,240 -12,96 -133,168 -200,210l-833 570c-26,-93 -24,-172 6,-238 59,-104 197,-340 303,-497 63,-86 24,-167 12,-181 -154,90 -392,235 -525,315 -39,-154 -66,-352 -65,-562 -1,-210 26,-407 65,-562z"/>
  </g>
 </g>
</svg>
