<?xml version="1.0" encoding="UTF-8"?>
<!DOCTYPE svg PUBLIC "-//W3C//DTD SVG 1.1//EN" "http://www.w3.org/Graphics/SVG/1.1/DTD/svg11.dtd">
<!-- Creator: CorelDRAW X8 -->
<svg xmlns="http://www.w3.org/2000/svg" xml:space="preserve" width="71.5432mm" height="84.6666mm" version="1.1" shape-rendering="geometricPrecision" text-rendering="geometricPrecision" image-rendering="optimizeQuality" fill-rule="evenodd" clip-rule="evenodd"
viewBox="0 0 7154 8467"
 xmlns:xlink="http://www.w3.org/1999/xlink">
 <defs>
    <linearGradient id="id0" gradientUnits="userSpaceOnUse" x1="939.14" y1="5952.47" x2="7023.66" y2="-132.06">
     <stop offset="0" stop-opacity="1" stop-color="#E2A950"/>
     <stop offset="0.258824" stop-opacity="1" stop-color="#E8B667"/>
     <stop offset="0.501961" stop-opacity="1" stop-color="#FFE3B5"/>
     <stop offset="0.768627" stop-opacity="1" stop-color="#EBBB6F"/>
     <stop offset="1" stop-opacity="1" stop-color="#E2A950"/>
    </linearGradient>
 </defs>
 <g id="Слой_x0020_1">
  <metadata id="CorelCorpID_0Corel-Layer"/>
  <g id="_1750782020304">
   <rect fill="#FEFEFE" stroke="#FEFEFE" stroke-width="20" x="455" y="1751" width="4551" height="484"/>
   <polygon fill="#01559E" points="-1,1848 4124,1848 3584,2337 488,2337 488,7977 6666,7977 6666,5950 7156,5507 7156,8467 -1,8467 "/>
   <polygon fill="url(#id0)" points="1519,5820 7156,712 7156,0 807,5820 "/>
   <polygon fill="#01559E" points="3704,5820 7156,2693 7156,1981 2992,5820 "/>
   <polygon fill="#00AFEF" points="5814,5820 7156,4605 7156,3893 5102,5820 "/>
   <path fill="#01559E" fill-rule="nonzero" d="M1722 6610l-229 0 0 233c0,162 9,315 22,429l-3 0c-42,-99 -103,-224 -154,-312l-192 -350 -273 0 0 978 230 0 0 -240c0,-175 -6,-324 -13,-438l5 0c41,101 105,229 157,322l196 356 254 0 0 -978zm743 0l-324 0 -297 978 259 0 61 -228 259 0 65 228 264 0 -287 -978zm-270 582l50 -196c13,-56 32,-146 47,-205l3 0c14,59 33,146 48,205l49 196 -197 0zm694 391c54,6 136,14 245,14 195,0 348,-36 448,-110 93,-70 176,-198 176,-407 0,-179 -63,-303 -172,-381 -94,-64 -216,-96 -402,-96 -112,0 -218,9 -295,21l0 959zm254 -800c18,-4 42,-6 79,-6 161,0 268,101 268,305 0,241 -119,339 -286,338 -20,0 -45,0 -61,-3l0 -634zm1395 616l-372 0 0 -789 -256 0 0 978 628 0 0 -189zm472 -537c-226,0 -391,135 -391,374 0,229 155,366 382,366 179,0 383,-98 383,-375 0,-214 -141,-365 -374,-365zm116 369c0,114 -39,209 -122,209 -87,0 -127,-90 -127,-209 0,-99 31,-207 127,-207 87,0 122,102 122,207zm1092 157c-39,13 -104,23 -163,23 -181,0 -297,-107 -297,-310 0,-221 135,-317 296,-317 71,0 125,14 163,29l46 -181c-32,-15 -110,-35 -224,-35 -289,0 -550,166 -550,516 0,271 168,488 524,488 111,0 198,-18 237,-33l-32 -180z"/>
  </g>
 </g>
</svg>
