<?xml version="1.0" encoding="UTF-8"?>
<!DOCTYPE svg PUBLIC "-//W3C//DTD SVG 1.1//EN" "http://www.w3.org/Graphics/SVG/1.1/DTD/svg11.dtd">
<!-- Creator: CorelDRAW X8 -->
<svg xmlns="http://www.w3.org/2000/svg" xml:space="preserve" width="84.6666mm" height="84.6666mm" version="1.1" shape-rendering="geometricPrecision" text-rendering="geometricPrecision" image-rendering="optimizeQuality" fill-rule="evenodd" clip-rule="evenodd"
viewBox="0 0 8467 8467"
 xmlns:xlink="http://www.w3.org/1999/xlink">
 <g id="Слой_x0020_1">
  <metadata id="CorelCorpID_0Corel-Layer"/>
  <g id="_1626216286496">
   <path fill="#C41521" d="M982 3498l1339 0c251,0 456,206 456,457l0 0c0,251 -205,456 -456,456 -643,0 -1286,0 -1929,0 -215,0 -392,-177 -392,-392l0 -2523c0,-215 177,-392 392,-392 643,0 1286,0 1929,0 251,0 456,205 456,456l0 0c0,251 -205,457 -456,457l-1339 0 0 284 868 0c251,0 457,206 457,456l0 1c0,251 -206,456 -457,456l-868 0 0 284zm6954 -2394c258,0 505,211 505,469l0 0c0,258 -211,469 -469,469 -375,0 -750,0 -1125,0 -206,3 -187,263 0,265l625 0c624,0 1007,450 994,1106 1,567 -566,998 -1078,998 -447,0 -731,0 -1178,0 -258,0 -469,-211 -469,-469l0 0c0,-258 211,-469 469,-469 407,0 814,0 1220,0 199,-3 188,-246 19,-264l-652 0c-712,0 -1026,-588 -1023,-1107 -1,-567 440,-998 952,-998 415,0 795,0 1210,0zm-4566 0l1907 0c251,0 456,205 456,456l0 0c0,251 -205,457 -456,457l-502 0 0 1938c0,251 -205,456 -456,456l0 0c-251,0 -457,-205 -457,-456l0 -1938 -492 0c-251,0 -456,-206 -456,-457l0 0c0,-251 205,-456 456,-456z"/>
   <path fill="#999999" fill-rule="nonzero" d="M451 7031l0 -1267 -451 0 0 -257 1209 0 0 257 -449 0 0 1267 -309 0zm957 0l0 -1524 1128 0 0 257 -819 0 0 339 762 0 0 257 -762 0 0 413 849 0 0 258 -1158 0zm1420 0l0 -1524 308 0 0 600 601 0 0 -600 308 0 0 1524 -308 0 0 -667 -601 0 0 667 -308 0zm1660 -1524l1051 0 0 1266 135 0 0 590 -258 0 0 -332 -956 0 0 332 -257 0 0 -590 130 0c63,-130 105,-281 125,-453 20,-172 30,-389 30,-652l0 -161zm294 257c0,461 -43,798 -128,1009l577 0 0 -1009 -449 0zm1099 1267l0 -1524 1128 0 0 257 -820 0 0 339 762 0 0 257 -762 0 0 413 849 0 0 258 -1157 0zm1419 0l0 -1524 493 0c187,0 309,7 366,23 87,23 160,72 219,149 59,77 88,175 88,297 0,93 -17,172 -50,236 -34,63 -77,113 -130,150 -52,36 -105,60 -159,72 -73,15 -179,22 -318,22l-200 0 0 575 -309 0zm309 -1267l0 435 167 0c121,0 202,-9 243,-25 40,-16 72,-40 95,-75 23,-34 35,-73 35,-119 0,-55 -16,-101 -48,-137 -33,-36 -74,-59 -124,-68 -36,-7 -110,-11 -220,-11l-148 0z"/>
  </g>
 </g>
</svg>
