<svg width="1038" height="1040" viewBox="0 0 1038 1040" fill="none" xmlns="http://www.w3.org/2000/svg">
<path d="M221.566 127.185L227.154 121.373L235.703 114.451L247.767 107.898L256.65 104.565L265.773 102.325L275.84 101.25L286.147 101.267L296.307 102.69L303.969 104.206L310.15 106.278L315.943 108.664L320.015 110.514L325.03 113.53L329.342 116.472L334.525 121.282L339.948 127.185L342.465 130.294L347.111 136.825L349.24 140.249L351.295 144.375L353.59 149.593L355.109 155.441L356.942 161.677L357.256 162.066L363.695 154.921L368.432 150.442L373.483 146.352L379.553 142.724L384.771 140.428L389.453 139.854L394.838 139.353L401.944 139.389L408.2 140.758L412.974 142.681L417.361 144.92L420.655 147.399L422.932 149.416L425.375 153.228L423.432 154.801L417.584 156.319L412.829 157.597L406.907 159.819L400.597 162.355L394.213 165.595L386.201 170.796L380.058 175.127L372.675 181.106L367.235 185.511L358.538 193.84L351.637 202.002L342.886 214.236L335.855 227.006L330.379 238.518L326.772 249.159L324.017 258.468L322.426 266.833L321.077 276.289L320.023 282.933L320.302 290.428L320.34 296.831L321.081 303.308L321.508 309.396L323.305 322.739L321.51 322.905L318.123 317.928L314.42 312.562L309.367 303.143L306.201 296.056L303.98 290.134L301.665 281.715L300.295 274.461L299.942 267.669L299.885 258.064L300.846 248.922L303.361 238.522L306.894 228.584L309.891 220.367L318.122 199.546L322.192 187.887L324.318 177.801L325.131 170.065L324.853 162.57L323.408 156.02L321.742 151.579L319.058 146.675L315.356 141.309L309.23 135.332L304.214 132.317L299.754 130.781L294.202 129.487L288.187 129.21L281.784 129.248L273.439 130.86L265.722 133.248L259.338 136.488L252.029 141.763L244.887 148.833L241.797 154.552L240.355 161.51L239.911 165.73L239.857 169.635L240.505 173.613L241.856 177.666L244.614 181.866L247.132 184.975L250.426 187.454L253.48 188.841L256.607 189.526L259.809 189.507L264.102 189.247L268.081 188.599L271.43 187.173L275.242 184.73L278.425 181.509L279.35 179.473L280.885 175.013L280.94 171.109L279.903 167.445L278.163 163.707L275.793 159.192L273.276 156.083L270.685 153.678L272.313 151.716L275.2 151.308L280.511 151.511L286.063 152.805L290.208 153.952L293.262 155.34L296.741 157.026L299.925 159.595L302.442 162.704L304.293 166.352L305.293 169.402L305.941 173.381L306.294 180.172L305.703 185.798L304.408 191.35L302.096 196.44L299.154 200.752L294.417 205.231L290.143 208.692L284.851 211.691L278.855 214.616L273.322 216.523L267.863 217.727L262.09 218.542L254.28 218.432L248.34 217.452L241.844 214.992L236.828 211.976L231.887 208.257L226.704 203.447L222.854 199.487L219.078 194.824L215.376 189.458L212.766 183.851L210.933 177.615L210.044 172.545L209.618 166.456L209.894 160.442L210.559 154.113L212.002 147.154L214.073 140.973L216.848 134.866L221.566 127.185Z" fill="#DA3438"/>
<path d="M226.704 203.447C228.318 225.302 215.495 235.686 215.495 235.686L211.535 239.536L206.872 243.312L199.008 247.107L191.051 248.404L184.333 248.053L179.169 246.444L174.154 243.428L170.619 239.857L167.546 235.268L165.324 229.347L164.824 223.961L165.582 220.131L166.729 215.985L168.505 212.617L171.577 217.206L175.113 220.777L178.092 222.867L183.497 225.568L187.716 226.012L192.472 224.734L196.746 221.273L200.076 216.646L201.538 212.889L202.518 206.949L202.017 201.564L199.259 197.363L195.798 193.089L190.079 189.999L182.029 188.798L173.831 189.003L166.503 191.076L159.268 195.648L154.846 200.516L151.441 205.846L148.037 211.177L145.04 219.394L143.839 227.444L144.192 234.235C144.192 234.235 144.755 238.319 145.636 240.786C146.899 244.323 150.449 249.113 150.449 249.113C156.89 255.478 157.612 258.754 170.215 263.989C182.819 269.224 213.611 260.373 213.611 260.373L221.957 258.762L230.155 258.557L236.873 258.908L246.718 259.942L255.009 262.236L263.929 265.306L273.405 269.857L280.456 273.798L285.953 278.997L291.376 284.9L297.67 292.671L302.871 300.683L301.705 301.627L291.119 294.116L279.052 287.159L267.078 282.701L254.401 278.169L245.573 277.597L235.969 277.654L225.439 279.747L218.111 281.821L209.618 284.839L199.181 289.43L188.985 295.113L178.715 301.499L169.852 308.033L161.618 315.344L156.881 319.823L152.774 325.079L147.742 332.371L145.966 335.74L144.578 338.793L143.579 341.532L142.266 343.883L140.471 344.05C140.471 344.05 131.278 332.698 133.405 322.612C135.531 312.526 135.789 310.461 140.637 304.53C143.112 301.503 148.31 296.525 148.31 296.525L155.23 291.565L160.208 288.177L153.545 283.922L147.197 280.055L141.311 275.171L134.555 268.417L129.521 262.2L124.949 254.965L122.486 247.952L121.19 239.994L120.503 229.613L120.909 218.99L122.499 210.625L125.255 201.317L128.566 193.488L132.507 186.437L138.169 179.922L144.46 174.184L150.991 169.538L158.153 165.669L163.759 163.059L169.922 161.929L174.215 161.669L180.23 161.946L187.891 163.462L194.776 165.608L201.901 168.845C201.901 168.845 225.091 181.592 226.704 203.447Z" fill="#DA3438"/>
<path d="M594.255 32.7877L602.316 32.6294L613.256 33.7792L626.42 37.6766L635.057 41.6009L643.093 46.4675L650.971 52.8259L658.248 60.1265L664.426 68.3171L668.771 74.8069L671.677 80.6426L674.086 86.4261L675.657 90.6132L677.071 96.2922L678.04 101.422L678.303 108.488L677.964 116.496L677.546 120.474L676.212 128.378L675.297 132.304L673.832 136.675L671.765 141.988L668.704 147.196L665.59 152.902L665.538 153.4L675.143 152.901L681.66 153.083L688.124 153.762L694.981 155.489L700.294 157.555L704.011 160.46L708.173 163.914L713.172 168.964L716.628 174.355L718.644 179.091L720.162 183.776L720.739 187.858L720.922 190.894L719.955 195.317L717.468 195.056L712.26 191.995L707.994 189.535L702.236 186.919L695.98 184.251L689.175 182.027L679.832 180.04L672.425 178.758L662.977 177.765L656.016 177.034L643.977 176.774L633.325 177.665L618.487 180.128L604.486 184.186L592.474 188.454L582.399 193.428L573.868 198.062L566.828 202.852L559.187 208.585L553.744 212.538L548.642 218.035L544.141 222.589L540.085 227.693L536.082 232.3L527.918 243.005L526.531 241.854L527.655 235.939L528.832 229.527L531.918 219.293L534.691 212.044L537.308 206.285L541.625 198.695L545.785 192.597L550.338 187.545L557.089 180.713L564.233 174.928L573.366 169.352L582.891 164.823L590.821 161.132L611.364 152.23L622.486 146.863L631.121 141.235L637.166 136.34L642.268 130.844L645.879 125.19L647.841 120.871L649.411 115.506L650.588 109.094L650.481 100.536L649.067 94.8571L646.999 90.6177L643.989 85.7765L639.931 81.3281L635.377 76.8273L628.336 72.0653L621.191 68.2978L614.386 66.0743L605.488 64.6362L595.438 64.5855L589.209 66.4446L583.269 70.3451L579.972 73.015L577.172 75.7373L574.817 79.0091L572.907 82.8304L571.887 87.7507L571.469 91.7288L572.046 95.8114L573.224 98.9518L574.952 101.647L577.229 103.897L580.448 106.75L583.72 109.105L587.096 110.465L591.519 111.433L596.047 111.406L598.141 110.62L602.38 108.552L605.18 105.83L607.038 102.506L608.45 98.6322L609.967 93.7641L610.386 89.786L610.254 86.2529L612.793 86.017L615.122 87.7701L618.734 91.669L621.745 96.5102L623.865 100.252L625.044 103.393L626.312 107.045L626.746 111.113L626.328 115.091L625.057 118.98L623.607 121.844L621.252 125.115L616.699 130.167L612.303 133.727L607.462 136.738L602.228 138.701L597.098 139.67L590.582 139.488L585.112 138.913L579.249 137.292L572.942 135.12L567.681 132.556L562.97 129.548L558.311 126.041L552.866 120.442L549.358 115.548L546.505 109.215L545.091 103.536L544.226 97.4122L543.963 90.346L544.041 84.8239L544.668 78.8568L545.845 72.4446L547.964 66.6343L551.077 60.9285L554.034 56.7145L558.037 52.1077L562.486 48.0505L567.431 44.0455L573.372 40.1451L579.207 37.2391L585.488 34.8827L594.255 32.7877Z" fill="#B8195B"/>
<path d="M543.963 90.3461C529.65 106.941 513.241 105.216 513.241 105.216L507.719 105.138L501.751 104.511L493.507 101.634L486.963 96.924L482.461 91.926L479.948 87.1371L478.534 81.4581L478.559 76.4333L479.631 71.0157L482.248 65.2576L485.702 61.0958L488.947 58.9231L492.689 56.8026L496.326 55.6767L495.254 61.0943L495.229 66.1192L495.857 69.7045L497.769 75.4357L500.439 78.7329L504.705 81.1923L510.175 81.7672L515.802 80.8503L519.491 79.2271L524.385 75.7194L527.839 71.5577L528.859 66.6373L529.434 61.1675L527.575 54.939L522.732 48.397L516.79 42.7449L510.142 39.0297L501.793 37.1466L495.224 37.4617L489.048 38.8236L482.872 40.1855L474.943 43.8769L468.401 48.7196L463.848 53.7713C463.848 53.7713 461.358 57.0574 460.237 59.4249C458.629 62.8192 457.752 68.716 457.752 68.716C457.806 77.7713 456 80.598 461.21 93.2117C466.42 105.825 494.452 121.341 494.452 121.341L501.493 126.103L507.435 131.755L511.937 136.753L518.167 144.446L522.408 151.93L526.544 160.409L530.027 170.327L532.226 178.1L532.437 185.663L532.098 193.672L531.053 203.617L529.065 212.96L527.573 212.804L525.399 200.006L521.785 186.555L516.471 174.936L510.711 162.767L504.874 156.12L498.042 149.369L489.117 143.404L482.469 139.688L474.329 135.816L463.703 131.683L452.475 128.492L440.697 125.746L429.81 124.099L418.818 123.446L412.301 123.264L405.68 124.076L396.965 125.674L393.328 126.8L390.187 127.978L387.544 129.209L384.953 129.942L383.566 128.791C383.566 128.791 385.093 114.263 393.729 108.635C402.364 103.007 404.007 101.73 411.628 100.964C415.519 100.573 422.714 100.729 422.714 100.729L431.115 102.115L437.03 103.239L435.327 95.5189L433.573 88.2959L432.865 80.6802L432.864 71.1277L433.7 63.1715L435.583 54.8226L438.801 48.1223L443.511 41.5787L450.366 33.7525L458.164 26.528L465.203 21.7376L473.734 17.1039L481.612 13.9098L489.384 11.7102L497.994 11.1069L506.5 11.4981L514.404 12.8316L522.203 15.1596L528.014 17.2786L533.17 20.8371L536.389 23.6892L540.447 28.1377L544.792 34.6274L548.143 41.0127L550.892 48.3402C550.892 48.3402 558.276 73.7513 543.963 90.3461Z" fill="#B8195B"/>
<path d="M917.422 228.336L922.829 234.316L929.139 243.327L934.834 255.819L937.539 264.912L939.138 274.169L939.508 284.287L938.772 294.568L936.643 304.604L934.596 312.141L932.098 318.163L929.314 323.775L927.184 327.708L923.826 332.501L920.591 336.597L915.43 341.431L909.164 346.43L905.887 348.724L899.047 352.903L895.484 354.788L891.224 356.55L885.858 358.476L879.919 359.582L873.57 360.976L873.161 361.263L879.838 368.184L883.976 373.222L887.704 378.547L890.9 384.854L892.826 390.22L893.073 394.93L893.196 400.337L892.665 407.424L890.863 413.568L888.611 418.197L886.072 422.417L883.369 425.53L881.198 427.66L877.225 429.832L875.791 427.784L874.685 421.845L873.742 417.011L871.939 410.949L869.849 404.478L867.063 397.883L862.433 389.528L858.54 383.097L853.091 375.315L849.076 369.581L841.374 360.325L833.713 352.871L822.12 343.288L809.871 335.384L798.77 329.118L788.406 324.778L779.312 321.379L771.079 319.209L761.739 317.204L755.185 315.689L747.689 315.444L741.299 315.035L734.786 315.323L728.683 315.324L715.247 316.186L715.206 314.384L720.408 311.352L726.019 308.033L735.767 303.649L743.058 300.985L749.12 299.182L757.681 297.461L765.013 296.599L771.813 296.721L781.398 297.334L790.451 298.931L800.65 302.165L810.318 306.383L818.306 309.946L838.501 319.61L849.848 324.482L859.762 327.307L867.422 328.658L874.918 328.903L881.553 327.919L886.1 326.566L891.179 324.231L896.79 320.912L903.179 315.218L906.537 310.425L908.38 306.083L910.059 300.634L910.754 294.654L911.163 288.264L910.138 279.826L908.293 271.962L905.507 265.367L900.754 257.708L894.199 250.09L888.71 246.609L881.869 244.685L877.691 243.948L873.8 243.621L869.785 243.99L865.649 245.056L861.266 247.514L857.989 249.808L855.286 252.922L853.689 255.871L852.789 258.944L852.584 262.139L852.544 266.44L852.913 270.454L854.101 273.894L856.273 277.867L859.264 281.267L861.23 282.331L865.572 284.174L869.463 284.501L873.191 283.722L877.041 282.247L881.71 280.199L884.987 277.904L887.567 275.487L889.411 277.248L889.616 280.156L889.043 285.441L887.365 290.889L885.931 294.944L884.334 297.894L882.41 301.247L879.625 304.243L876.348 306.538L872.58 308.13L869.467 308.914L865.453 309.284L858.653 309.162L853.082 308.179L847.634 306.501L842.718 303.839L838.622 300.603L834.484 295.566L831.329 291.06L828.707 285.572L826.207 279.387L824.691 273.735L823.871 268.205L823.46 262.388L824.115 254.606L825.507 248.748L828.414 242.439L831.772 237.646L835.827 232.976L840.987 228.142L845.206 224.578L850.121 221.136L855.732 217.818L861.507 215.605L867.856 214.211L872.976 213.678L879.08 213.677L885.06 214.373L891.327 215.478L898.168 217.402L904.19 219.9L910.089 223.094L917.422 228.336Z" fill="#F9831B"/>
<path d="M840.987 228.142C819.073 228.227 809.609 214.711 809.609 214.711L806.044 210.492L802.603 205.577L799.366 197.467L798.627 189.439L799.446 182.762L801.411 177.724L804.769 172.931L808.578 169.653L813.37 166.908L819.432 165.105L824.839 164.981L828.608 166.005L832.663 167.438L835.9 169.445L831.108 172.19L827.299 175.467L825.005 178.294L821.934 183.496L821.197 187.675L822.14 192.508L825.294 197.013L829.678 200.658L833.324 202.378L839.181 203.77L844.588 203.646L848.971 201.188L853.476 198.033L856.957 192.544L858.717 184.597L859.085 176.405L857.527 168.95L853.471 161.414L848.924 156.663L843.844 152.895L838.764 149.127L830.776 145.565L822.829 143.804L816.03 143.682C816.03 143.682 811.917 143.96 809.394 144.666C805.777 145.68 800.752 148.887 800.752 148.887C793.953 154.868 790.635 155.36 784.534 167.567C778.432 179.775 785.113 211.11 785.113 211.11L786.138 219.548L785.771 227.74L784.952 234.417L783.233 244.166L780.367 252.277L776.682 260.961L771.481 270.096L767.058 276.855L761.488 281.976L755.222 286.975L747.03 292.71L738.675 297.34L737.814 296.111L746.046 286.075L753.827 274.522L759.11 262.889L764.515 250.558L765.702 241.792L766.315 232.207L764.961 221.558L763.404 214.103L760.986 205.419L757.134 194.688L752.176 184.12L746.522 173.43L740.622 164.133L733.903 155.409L729.765 150.371L724.809 145.907L717.885 140.378L714.649 138.372L711.7 136.774L709.037 135.587L706.784 134.113L706.743 132.31C706.743 132.31 718.708 123.932 728.621 126.757C738.534 129.582 740.576 129.984 746.154 135.234C749.001 137.913 753.604 143.445 753.604 143.445L758.07 150.695L761.102 155.897L765.812 149.547L770.112 143.484L775.395 137.954L782.603 131.685L789.157 127.097L796.693 123.041L803.861 121.073L811.889 120.335L822.294 120.374L832.862 121.52L841.095 123.69L850.189 127.088L857.768 130.938L864.527 135.361L870.631 141.463L875.916 148.139L880.095 154.979L883.455 162.393L885.668 168.168L886.365 174.394L886.325 178.695L885.629 184.675L883.582 192.213L880.962 198.931L877.235 205.813C877.235 205.813 862.902 228.057 840.987 228.142Z" fill="#F9831B"/>
<path d="M34.2922 470.54C33.2921 466.355 32.7451 462.074 32.6606 457.772L32.6294 456.183L33.2034 450.722C33.5865 447.077 34.3026 443.475 35.343 439.961L37.6766 432.079L41.6009 423.442L46.4675 415.406L52.8259 407.528L60.1265 400.251L68.3171 394.073L74.8069 389.728L80.6426 386.822L86.4261 384.413L90.6132 382.842L96.2922 381.428L97.0045 381.294C99.9451 380.738 102.923 380.403 105.914 380.292L108.488 380.196L116.496 380.535L120.474 380.953L128.378 382.287L132.304 383.202L136.675 384.667L137.494 384.986C140.485 386.149 143.378 387.551 146.145 389.177L147.196 389.795L152.838 392.874C152.88 392.897 152.927 392.911 152.975 392.916C153.198 392.94 153.389 392.758 153.377 392.534L152.901 383.356L153.083 376.839L153.317 374.616C153.613 371.792 154.11 368.993 154.803 366.24L155.489 363.518L155.845 362.601C156.979 359.686 158.534 356.953 160.46 354.488L163.914 350.326L166.43 347.835C168.115 346.167 169.97 344.682 171.965 343.403C173.555 342.384 175.228 341.5 176.966 340.76L179.091 339.855L179.854 339.608C182.463 338.762 185.142 338.144 187.858 337.76L190.287 337.613C190.69 337.589 191.094 337.62 191.488 337.707L193.351 338.114C194.47 338.359 195.227 339.406 195.107 340.546C195.073 340.865 194.972 341.174 194.809 341.451L191.995 346.239L189.535 350.505L186.919 356.264L184.251 362.519L182.027 369.324L180.04 378.667L178.758 386.074L177.765 395.522L177.034 402.483L176.774 414.522L177.665 425.174L180.128 440.012L184.186 454.013L188.454 466.025L193.428 476.1L198.062 484.631L202.852 491.671L208.585 499.312L209.099 500.019C211.386 503.169 213.974 506.088 216.827 508.737L218.035 509.857L222.589 514.358L227.693 518.414L232.3 522.417L242.09 529.883C242.589 530.264 242.671 530.984 242.27 531.467C242.013 531.776 241.609 531.922 241.214 531.847L235.939 530.844L229.527 529.667L219.293 526.581L212.044 523.808L206.285 521.191L198.695 516.874L192.597 512.714L187.545 508.161L180.713 501.41L174.928 494.266L169.352 485.133L164.823 475.608L161.132 467.678L152.23 447.135L146.863 436.013L141.235 427.378L138.421 423.902C137.036 422.192 135.531 420.581 133.918 419.084L133.593 418.783C131.764 417.085 129.785 415.555 127.682 414.211L127.189 413.896C125.858 413.046 124.468 412.292 123.031 411.639C121.593 410.985 120.111 410.435 118.595 409.992L115.506 409.088L112.927 408.615C110.378 408.147 107.789 407.928 105.198 407.96L103.608 407.979C101.567 408.005 99.5357 408.267 97.555 408.76C95.7614 409.207 94.0196 409.84 92.3584 410.651L90.6177 411.5L90.4546 411.601C87.3424 413.537 84.4141 415.753 81.7064 418.222L81.3281 418.568L80.735 419.168C78.1355 421.798 75.7847 424.664 73.7128 427.727L72.0653 430.163L70.0385 434.007C68.8801 436.204 67.91 438.495 67.1385 440.856C66.4301 443.024 65.8915 445.244 65.5276 447.496L65.1868 449.605C64.8203 451.872 64.6304 454.165 64.6188 456.463L64.602 459.788C64.5911 461.958 64.901 464.118 65.5218 466.198C66.1338 468.248 67.0412 470.198 68.2155 471.987L70.3451 475.23L73.0151 478.527L74.2683 479.816C75.2457 480.821 76.3096 481.739 77.4476 482.558L77.6863 482.73C78.5667 483.363 79.4966 483.926 80.4669 484.41C82.0359 485.195 83.7 485.772 85.4176 486.128L87.7507 486.612L89.5611 486.802C91.0008 486.953 92.4536 486.927 93.887 486.725L94.1213 486.692C95.2447 486.533 96.3473 486.252 97.4095 485.854L97.4887 485.824C98.4614 485.459 99.3927 484.992 100.267 484.432C101.184 483.844 102.033 483.156 102.799 482.382L103.897 481.27L106.75 478.051L107.849 476.523C108.683 475.364 109.374 474.11 109.907 472.786C110.278 471.865 110.572 470.915 110.784 469.945L111.061 468.677C111.308 467.549 111.429 466.397 111.422 465.242L111.419 464.688C111.41 463.209 111.14 461.743 110.62 460.358L109.448 457.955C108.854 456.739 108.071 455.625 107.128 454.654C106.267 453.769 105.282 453.013 104.204 452.41L103.684 452.12C102.9 451.682 102.082 451.307 101.238 450.999L98.6322 450.049L95.9873 449.224C94.5088 448.764 92.9884 448.45 91.4482 448.288L90.0317 448.139C89.8681 448.122 89.7035 448.117 89.5391 448.123L88.0615 448.178C87.0468 448.215 86.1794 447.454 86.0854 446.443C86.0414 445.969 86.1756 445.496 86.4617 445.115L87.4407 443.815C87.6598 443.523 87.9046 443.252 88.1719 443.005L89.6531 441.632C90.994 440.39 92.4505 439.279 94.0027 438.313L96.5102 436.754L97.3342 436.287C99.2767 435.187 101.302 434.24 103.393 433.455L105.039 432.884C106.372 432.421 107.754 432.112 109.157 431.962C110.457 431.823 111.785 431.824 113.085 431.96C114.408 432.099 115.728 432.379 116.992 432.792L117.465 432.947C118.473 433.276 119.455 433.682 120.401 434.162C121.361 434.648 122.282 435.208 123.156 435.837L125.115 437.247L126.67 438.648C128.998 440.746 131.158 443.023 133.13 445.458L133.727 446.196L135.16 448.501C136.209 450.188 137.089 451.974 137.787 453.834L137.886 454.098C138.428 455.544 138.845 457.034 139.132 458.552C139.49 460.446 139.643 462.372 139.589 464.298L139.488 467.917L139.432 468.449C139.087 471.735 138.471 474.988 137.589 478.173L137.292 479.25L135.12 485.557L132.556 490.818L129.548 495.529L128.428 497.018C126.839 499.128 125.09 501.113 123.196 502.955L122.294 503.832C121.061 505.031 119.74 506.136 118.342 507.138C116.484 508.47 114.498 509.614 112.414 510.553L112.219 510.641C110.22 511.541 108.145 512.261 106.018 512.791L103.536 513.408L97.4122 514.273L90.346 514.536L84.8239 514.458L78.8568 513.831L75.6629 513.245C73.5212 512.852 71.4164 512.279 69.3707 511.533C67.549 510.869 65.7796 510.069 64.0775 509.14L60.9285 507.422L56.7145 504.465L52.1077 500.462L48.0505 496.013L44.0455 491.068L40.1451 485.127L37.2391 479.292L34.8828 473.011L34.2922 470.54Z" fill="#9321FF"/>
<path d="M90.3461 514.536C102.849 525.32 104.953 537.293 105.23 542.543C105.326 544.354 105.203 546.167 105.178 547.98L105.138 550.781L104.917 552.888C104.647 555.453 104.082 557.978 103.232 560.413L103.161 560.616C102.148 563.519 100.722 566.259 98.9261 568.754L98.7336 569.022C97.5306 570.693 96.1524 572.231 94.6224 573.609L93.9798 574.188C92.6159 575.417 91.1037 576.47 89.4784 577.323C87.9231 578.139 86.2757 578.766 84.5713 579.19L84.2248 579.277C82.3875 579.734 80.5004 579.961 78.607 579.951C77.1611 579.944 75.7192 579.799 74.3009 579.518L73.8962 579.438C71.9823 579.059 70.1186 578.46 68.3423 577.653L67.6214 577.326C66.0525 576.613 64.5857 575.694 63.2596 574.594C61.8246 573.403 60.5689 572.011 59.5313 570.461L58.9231 569.553L56.9163 566.011C56.8408 565.878 56.7798 565.737 56.7345 565.591C56.2568 564.047 57.6014 562.554 59.186 562.868L60.8026 563.188C60.9966 563.226 61.1939 563.246 61.3917 563.247L64.1298 563.261C65.4534 563.267 66.775 563.156 68.0788 562.927C69.1611 562.737 70.2279 562.468 71.2704 562.12L73.4472 561.394C74.7622 560.955 75.9875 560.284 77.0648 559.412C78.1674 558.519 79.0963 557.43 79.8049 556.201L79.8806 556.07C80.7454 554.57 81.2858 552.905 81.4668 551.182L81.5448 550.441C81.6924 549.036 81.6521 547.618 81.425 546.224L81.2068 544.885C80.9701 543.433 80.5505 542.016 79.958 540.669C79.4721 539.565 78.8728 538.514 78.1697 537.533L76.7931 535.612C76.0803 534.618 75.2428 533.719 74.3013 532.938C72.4997 531.442 70.3589 530.412 68.0665 529.937L66.6373 529.641L64.612 529.428C62.3381 529.189 60.0395 529.402 57.8486 530.056C55.9236 530.631 54.1132 531.536 52.4984 532.732L50.563 534.164C49.1217 535.231 47.7755 536.421 46.5395 537.72L45.187 539.142C43.5654 540.847 42.1642 542.749 41.0164 544.802C39.6988 547.16 38.7279 549.695 38.1337 552.33L38.0373 552.757C37.4462 555.378 37.2119 558.066 37.3406 560.75C37.4212 562.43 37.6439 564.101 38.0061 565.744L38.8236 569.451L39.2051 571.182C39.8567 574.137 40.8298 577.012 42.107 579.755L42.1529 579.854C43.2993 582.316 44.6911 584.657 46.3072 586.84C47.9114 589.007 49.7286 591.008 51.7315 592.814L52.2649 593.294C53.2687 594.199 54.3055 595.066 55.4168 595.835C56.5721 596.634 58.1348 597.652 59.4249 598.263C60.7912 598.91 62.563 599.439 64.1924 599.84C67.1759 600.573 70.2612 600.718 73.3304 600.858C79.2063 601.127 83.0048 601.505 93.2117 597.289C103.617 592.991 115.996 573.164 120.012 566.353C120.918 564.816 121.841 563.307 122.84 561.83L123.311 561.134C125.169 558.387 127.251 555.799 129.537 553.396L131.755 551.065L136.753 546.562L140.587 543.458C143.155 541.378 145.891 539.514 148.766 537.884L151.93 536.092L160.409 531.955L170.327 528.473L170.905 528.309C175.683 526.957 180.61 526.203 185.574 526.065L185.663 526.063L193.672 526.402L203.617 527.447L212.164 529.265C212.617 529.361 212.924 529.784 212.875 530.244C212.833 530.647 212.527 530.973 212.127 531.041L200.006 533.101L191.391 535.415C188.173 536.28 185.032 537.411 182.001 538.797L174.936 542.029L170.37 544.19C165.326 546.577 160.64 549.657 156.446 553.339L156.12 553.626L153.394 556.385C150.717 559.094 148.304 562.051 146.188 565.217L143.404 569.383L139.688 576.031L135.816 584.171L131.683 594.797L128.492 606.025L125.746 617.802L124.099 628.69L123.446 639.682L123.39 641.691C123.306 644.692 123.448 647.694 123.813 650.674L124.076 652.82L125.674 661.534L126.8 665.172L127.978 668.312L129.058 670.633C129.158 670.847 129.241 671.07 129.306 671.298L129.699 672.686C129.851 673.225 129.728 673.803 129.371 674.234C129.008 674.671 128.457 674.898 127.895 674.812C124.647 674.318 113.422 672.116 108.635 664.771C103.007 656.135 101.73 654.493 100.964 646.871C100.774 644.976 100.713 642.297 100.701 640.047C100.685 637.209 100.961 634.38 101.423 631.58L102.115 627.385C102.647 624.584 100.143 622.152 97.3595 622.766L95.5189 623.172L92.5488 623.893C89.7173 624.581 86.8394 625.062 83.9381 625.332L80.6802 625.634L71.1277 625.636L63.1715 624.8L58.9001 623.836C56.1905 623.225 53.5586 622.31 51.0548 621.107C49.1036 620.17 47.2387 619.063 45.4819 617.798L41.5787 614.989L33.7525 608.133L29.5861 603.636C27.5502 601.439 25.6818 599.092 23.9964 596.615L21.7376 593.296L17.1039 584.765L13.9098 576.888L13.3976 575.078C12.2757 571.114 11.565 567.044 11.2771 562.934L11.1069 560.505L11.4981 552L12.8316 544.096L15.1596 536.296C16.5665 532.438 18.459 528.775 20.7914 525.396L20.8371 525.33L23.6892 522.11L24.8196 521.079C27.0286 519.064 29.385 517.218 31.8692 515.554L34.6274 513.707L41.0127 510.357L46.201 508.41C47.6266 507.875 49.0596 507.392 50.5483 507.073C57.0788 505.67 76.6953 502.762 90.3461 514.536Z" fill="#9321FF"/>
<path d="M152.31 834.688C148.53 832.63 144.983 830.173 141.73 827.357L140.528 826.317L136.854 822.236C134.402 819.513 132.204 816.57 130.289 813.446L125.992 806.437L122.2 797.741L119.485 788.748L117.884 778.751L117.362 768.457L118.251 758.236L119.365 750.506L121.11 744.224L123.19 738.315L124.824 734.152L127.573 728.985L127.95 728.366C129.505 725.809 131.248 723.372 133.167 721.075L134.818 719.098L140.429 713.373L143.401 710.697L149.681 705.715L152.988 703.41L157.001 701.143L157.787 700.747C160.652 699.303 163.63 698.091 166.689 697.123L167.852 696.755L173.915 694.622C173.961 694.606 174.003 694.581 174.038 694.549C174.205 694.399 174.198 694.135 174.024 693.994L166.884 688.207L162.163 683.711L160.667 682.05C158.767 679.94 157.02 677.698 155.438 675.34L153.873 673.01L153.43 672.131C152.023 669.338 151.032 666.353 150.489 663.273L149.707 657.922L149.54 654.384C149.428 652.017 149.565 649.644 149.95 647.305C150.257 645.442 150.719 643.607 151.332 641.821L152.082 639.636L152.408 638.904C153.526 636.399 154.859 633.994 156.391 631.719L157.907 629.815C158.159 629.5 158.452 629.221 158.78 628.986L160.329 627.874C161.26 627.206 162.545 627.345 163.312 628.196C163.527 628.435 163.688 628.717 163.785 629.023L165.46 634.319L166.985 639.001L169.513 644.798L172.376 650.967L175.946 657.172L181.559 664.901L186.206 670.81L192.563 677.869L197.247 683.072L206.019 691.32L214.532 697.785L227.207 705.884L240.327 712.236L252.109 717.102L262.925 720.147L272.365 722.412L280.802 723.562L290.316 724.415L291.186 724.507C295.057 724.914 298.959 724.944 302.836 724.596L304.476 724.449L310.868 724.076L317.298 722.997L323.355 722.252L335.454 719.972C336.071 719.856 336.661 720.277 336.752 720.898C336.81 721.296 336.647 721.694 336.327 721.937L332.053 725.186L326.887 729.164L317.746 734.704L310.834 738.236L305.037 740.764L296.75 743.516L289.578 745.265L282.814 745.972L273.226 746.532L264.046 746.051L253.528 744.083L243.418 741.075L235.056 738.513L213.833 731.382L201.977 727.928L191.793 726.332L187.327 726.098C185.129 725.983 182.925 726.024 180.733 726.221L180.292 726.261C177.806 726.484 175.345 726.93 172.94 727.594L172.376 727.75C170.853 728.17 169.363 728.698 167.916 729.33C166.468 729.961 165.067 730.694 163.724 731.524L160.985 733.215L158.907 734.815C156.854 736.396 154.959 738.173 153.249 740.12L152.2 741.315C150.853 742.849 149.688 744.533 148.729 746.335C147.861 747.967 147.167 749.686 146.657 751.462L146.124 753.324L146.09 753.513C145.446 757.121 145.133 760.78 145.157 764.445L145.16 764.957L145.209 765.799C145.425 769.491 145.981 773.156 146.871 776.745L147.579 779.599L149.079 783.678C149.937 786.009 150.991 788.263 152.229 790.416C153.366 792.393 154.655 794.279 156.085 796.056L157.424 797.72C158.865 799.51 160.441 801.185 162.141 802.731L164.601 804.969C166.206 806.429 168.019 807.644 169.98 808.574C171.913 809.491 173.969 810.122 176.084 810.446L179.919 811.033L184.156 811.256L185.953 811.187C187.354 811.133 188.748 810.956 190.118 810.659L190.405 810.596C191.465 810.366 192.505 810.051 193.515 809.654C195.147 809.013 196.69 808.163 198.104 807.125L200.024 805.714L201.377 804.496C202.453 803.528 203.406 802.431 204.215 801.23L204.347 801.034C204.981 800.093 205.509 799.085 205.924 798.029L205.955 797.951C206.335 796.984 206.611 795.979 206.78 794.954C206.956 793.879 207.014 792.788 206.95 791.701L206.859 790.141L206.375 785.867L205.975 784.027C205.672 782.633 205.203 781.28 204.576 779.998C204.14 779.106 203.63 778.252 203.051 777.446L202.294 776.391C201.621 775.453 200.846 774.591 199.983 773.824L199.569 773.456C198.464 772.473 197.194 771.693 195.817 771.152L193.246 770.415C191.945 770.042 190.594 769.879 189.241 769.931C188.007 769.978 186.786 770.204 185.617 770.602L185.053 770.794C184.203 771.084 183.377 771.441 182.584 771.862L180.134 773.163L177.752 774.577C176.42 775.367 175.169 776.287 174.018 777.323L172.96 778.276C172.838 778.386 172.724 778.505 172.618 778.631L171.67 779.766C171.019 780.545 169.873 780.68 169.059 780.074C168.677 779.789 168.415 779.373 168.324 778.906L168.012 777.308C167.943 776.95 167.905 776.587 167.9 776.223L167.871 774.204C167.845 772.376 167.994 770.55 168.315 768.75L168.834 765.844L169.039 764.919C169.52 762.739 170.172 760.6 170.988 758.522L171.665 756.916C172.213 755.615 172.908 754.382 173.735 753.239C174.502 752.179 175.391 751.193 176.363 750.318C177.351 749.429 178.443 748.635 179.595 747.972L180.026 747.724C180.946 747.195 181.904 746.737 182.894 746.355C183.897 745.966 184.93 745.656 185.982 745.428L188.341 744.916L190.423 744.698C193.539 744.372 196.677 744.29 199.806 744.454L200.754 744.504L203.426 744.981C205.381 745.33 207.297 745.872 209.146 746.598L209.408 746.701C210.846 747.265 212.233 747.953 213.553 748.755C215.2 749.756 216.734 750.931 218.129 752.26L220.751 754.757L221.108 755.154C223.32 757.61 225.324 760.244 227.102 763.031L227.703 763.972L230.937 769.806L233.131 775.232L234.619 780.621L234.976 782.449C235.481 785.041 235.786 787.669 235.887 790.309L235.935 791.567C236.001 793.285 235.939 795.006 235.748 796.715C235.494 798.987 235.016 801.229 234.319 803.406L234.254 803.609C233.586 805.697 232.732 807.721 231.702 809.656L230.501 811.914L227.046 817.044L222.513 822.471L218.76 826.522L214.301 830.537L211.728 832.519C210.003 833.847 208.169 835.028 206.246 836.049C204.533 836.959 202.755 837.738 200.926 838.382L197.542 839.572L192.525 840.725L186.467 841.47L180.446 841.508L174.091 841.175L167.067 840.099L160.786 838.354L154.541 835.902L152.31 834.688Z" fill="#1A6AFF"/>
<path d="M227.16 822.471C243.54 820.395 253.846 826.843 257.932 830.15C259.342 831.29 260.608 832.595 261.938 833.827L263.993 835.73L265.411 837.304C267.137 839.221 268.635 841.331 269.876 843.592L269.979 843.781C271.458 846.476 272.541 849.37 273.193 852.373L273.263 852.696C273.7 854.708 273.921 856.761 273.922 858.82L273.922 859.685C273.922 861.521 273.693 863.349 273.239 865.128C272.805 866.83 272.169 868.474 271.344 870.024L271.176 870.339C270.286 872.011 269.192 873.565 267.918 874.966C266.945 876.035 265.873 877.01 264.715 877.876L264.385 878.123C262.822 879.292 261.13 880.276 259.342 881.056L258.616 881.373C257.037 882.062 255.372 882.537 253.667 882.786C251.822 883.056 249.947 883.057 248.102 882.792L247.02 882.636L243.045 881.757C242.895 881.724 242.75 881.675 242.61 881.611C241.144 880.933 240.934 878.935 242.227 877.967L243.547 876.98C243.705 876.861 243.852 876.728 243.985 876.582L245.827 874.556C246.718 873.577 247.519 872.52 248.222 871.398C248.805 870.467 249.318 869.494 249.758 868.486L250.675 866.383C251.229 865.112 251.55 863.752 251.622 862.368C251.696 860.951 251.509 859.533 251.07 858.184L251.023 858.039C250.487 856.393 249.611 854.877 248.452 853.59L247.953 853.036C247.008 851.987 245.928 851.068 244.74 850.304L243.598 849.57C242.361 848.774 241.027 848.138 239.63 847.677C238.484 847.299 237.302 847.041 236.102 846.907L233.754 846.645C232.538 846.51 231.31 846.53 230.099 846.707C227.782 847.046 225.584 847.947 223.697 849.333L222.521 850.197L221.007 851.559C219.308 853.089 217.929 854.94 216.949 857.006C216.088 858.821 215.549 860.772 215.357 862.772L215.127 865.169C214.955 866.954 214.938 868.75 215.077 870.538L215.229 872.495C215.41 874.841 215.886 877.154 216.644 879.382C217.515 881.939 218.749 884.357 220.31 886.561L220.563 886.919C222.115 889.111 223.956 891.084 226.036 892.784C227.339 893.849 228.73 894.801 230.193 895.632L233.495 897.505L235.036 898.379C237.668 899.872 240.456 901.073 243.349 901.959L243.453 901.991C246.05 902.787 248.721 903.319 251.425 903.579C254.109 903.837 256.812 903.825 259.493 903.545L260.208 903.47C261.552 903.329 262.89 903.139 264.205 902.828C265.572 902.504 267.373 902.023 268.691 901.474C270.086 900.891 271.665 899.928 273.053 898.986C275.595 897.26 277.766 895.063 279.924 892.876C284.056 888.69 286.878 886.12 290.575 875.714C294.344 865.105 287.893 842.639 285.518 835.096C284.982 833.395 284.478 831.7 284.049 829.969L283.847 829.154C283.049 825.934 282.519 822.655 282.262 819.348L282.014 816.14L282.012 809.414L282.271 804.487C282.444 801.186 282.889 797.906 283.602 794.679L284.387 791.128L286.986 782.059L291.035 772.358L291.3 771.819C293.493 767.364 296.229 763.198 299.448 759.417L299.506 759.349L305.116 753.624L312.548 746.933L319.618 741.798C319.993 741.526 320.512 741.58 320.822 741.924C321.093 742.226 321.13 742.671 320.913 743.013L314.333 753.399L310.288 761.35C308.777 764.321 307.516 767.412 306.519 770.592L304.193 778.004L302.744 782.843C301.143 788.189 300.295 793.733 300.226 799.313L300.221 799.747L300.447 803.62C300.669 807.421 301.252 811.193 302.189 814.884L303.422 819.741L305.876 826.95L309.334 835.274L314.465 845.456L320.674 855.341L327.589 865.262L334.578 873.771L342.31 881.611L343.765 882.997C345.939 885.068 348.265 886.972 350.724 888.694L352.495 889.934L360.04 894.578L363.497 896.175L366.619 897.401L369.066 898.151C369.293 898.22 369.513 898.307 369.726 898.412L371.021 899.049C371.523 899.296 371.871 899.774 371.952 900.328C372.034 900.89 371.833 901.452 371.394 901.812C368.853 903.895 359.706 910.763 351.044 909.406C340.861 907.81 338.785 907.66 332.609 903.129C331.073 902.003 329.042 900.255 327.362 898.759C325.242 896.871 323.324 894.774 321.552 892.557L318.898 889.235C317.173 886.966 313.69 887.199 312.284 889.679L311.354 891.318L309.902 894.008C308.519 896.572 306.95 899.033 305.209 901.369L303.255 903.993L296.864 911.093L290.919 916.446L287.345 918.976C285.077 920.58 282.636 921.924 280.067 922.98C278.065 923.803 275.994 924.448 273.879 924.907L269.179 925.928L258.848 927.157L252.718 927.244C249.723 927.286 246.729 927.104 243.76 926.7L239.782 926.157L230.342 923.892L222.351 920.995L220.663 920.165C216.966 918.346 213.466 916.151 210.219 913.615L208.301 912.116L202.241 906.134L197.26 899.854L193.022 892.905C191.096 889.278 189.64 885.421 188.689 881.426L188.671 881.348L188.187 877.074L188.177 875.544C188.158 872.555 188.362 869.568 188.788 866.609L189.261 863.323L191.044 856.336L193.069 851.178C193.625 849.76 194.225 848.372 194.984 847.052C198.311 841.261 209.276 824.737 227.16 822.471Z" fill="#1A6AFF"/>
<path d="M495.54 1005.21C491.355 1006.21 487.074 1006.75 482.772 1006.84L481.183 1006.87L475.722 1006.3C472.077 1005.91 468.475 1005.2 464.961 1004.16L457.079 1001.82L448.442 997.899L440.406 993.032L432.528 986.674L425.251 979.373L419.073 971.182L414.728 964.693L411.822 958.857L409.413 953.073L407.842 948.886L406.428 943.207L406.294 942.495C405.738 939.554 405.403 936.576 405.292 933.586L405.196 931.012L405.535 923.003L405.953 919.025L407.287 911.121L408.202 907.196L409.667 902.825L409.986 902.005C411.149 899.014 412.551 896.122 414.177 893.355L414.795 892.303L417.874 886.661C417.897 886.619 417.911 886.573 417.916 886.525C417.94 886.302 417.758 886.111 417.534 886.122L408.356 886.599L401.839 886.417L399.616 886.183C396.792 885.886 393.993 885.389 391.24 884.696L388.518 884.011L387.601 883.654C384.686 882.52 381.953 880.966 379.488 879.04L375.326 875.586L372.835 873.069C371.167 871.385 369.682 869.53 368.403 867.534C367.384 865.944 366.5 864.271 365.76 862.534L364.855 860.408L364.608 859.646C363.762 857.036 363.144 854.358 362.76 851.641L362.613 849.212C362.589 848.81 362.62 848.406 362.707 848.012L363.114 846.149C363.359 845.029 364.406 844.273 365.546 844.393C365.865 844.426 366.174 844.528 366.451 844.69L371.239 847.505L375.505 849.964L381.264 852.58L387.519 855.249L394.324 857.472L403.667 859.46L411.074 860.741L420.522 861.734L427.483 862.466L439.522 862.726L450.174 861.834L465.012 859.372L479.013 855.313L491.025 851.045L501.1 846.071L509.631 841.438L516.671 836.647L524.312 830.914L525.019 830.401C528.169 828.113 531.088 825.525 533.737 822.672L534.857 821.465L539.358 816.91L543.414 811.806L547.417 807.2L554.883 797.41C555.264 796.91 555.984 796.828 556.467 797.23C556.776 797.486 556.922 797.891 556.847 798.286L555.844 803.561L554.667 809.973L551.581 820.206L548.808 827.456L546.191 833.214L541.874 840.804L537.714 846.903L533.161 851.955L526.41 858.786L519.266 864.571L510.133 870.147L500.608 874.676L492.678 878.368L472.135 887.269L461.013 892.636L452.378 898.264L448.902 901.079C447.192 902.464 445.581 903.969 444.084 905.582L443.783 905.906C442.085 907.736 440.555 909.714 439.211 911.818L438.896 912.311C438.046 913.642 437.292 915.031 436.639 916.469C435.985 917.906 435.435 919.389 434.992 920.904L434.088 923.993L433.615 926.573C433.147 929.122 432.928 931.71 432.96 934.302L432.979 935.892C433.005 937.933 433.267 939.964 433.76 941.944C434.207 943.738 434.84 945.48 435.651 947.141L436.5 948.882L436.601 949.045C438.537 952.157 440.753 955.085 443.222 957.793L443.568 958.171L444.168 958.765C446.798 961.364 449.664 963.715 452.727 965.787L455.163 967.434L459.007 969.461C461.204 970.619 463.495 971.59 465.856 972.361C468.024 973.069 470.244 973.608 472.496 973.972L474.605 974.313C476.872 974.679 479.165 974.869 481.463 974.881L484.788 974.897C486.958 974.908 489.118 974.599 491.198 973.978C493.248 973.366 495.198 972.458 496.987 971.284L500.23 969.154L503.527 966.484L504.816 965.231C505.821 964.254 506.739 963.19 507.558 962.052L507.73 961.813C508.363 960.933 508.926 960.003 509.41 959.033C510.195 957.464 510.772 955.799 511.128 954.082L511.612 951.749L511.802 949.938C511.953 948.499 511.927 947.046 511.725 945.613L511.692 945.378C511.533 944.255 511.252 943.152 510.854 942.09L510.824 942.011C510.459 941.038 509.992 940.107 509.432 939.232C508.844 938.315 508.156 937.466 507.382 936.7L506.27 935.602L503.051 932.75L501.523 931.65C500.364 930.816 499.11 930.125 497.786 929.592C496.865 929.221 495.915 928.928 494.945 928.716L493.677 928.438C492.549 928.192 491.397 928.07 490.242 928.077L489.688 928.081C488.209 928.089 486.743 928.36 485.358 928.879L482.955 930.052C481.739 930.645 480.625 931.428 479.654 932.371C478.769 933.232 478.013 934.217 477.41 935.296L477.12 935.816C476.682 936.6 476.307 937.418 475.999 938.262L475.049 940.867L474.224 943.512C473.764 944.991 473.45 946.511 473.288 948.051L473.139 949.468C473.122 949.631 473.117 949.796 473.123 949.96L473.178 951.438C473.215 952.453 472.454 953.32 471.443 953.414C470.969 953.458 470.496 953.324 470.115 953.038L468.815 952.059C468.523 951.84 468.252 951.595 468.005 951.328L466.632 949.846C465.39 948.506 464.279 947.049 463.313 945.497L461.754 942.989L461.287 942.165C460.187 940.223 459.24 938.197 458.455 936.107L457.884 934.461C457.421 933.127 457.112 931.746 456.962 930.342C456.823 929.042 456.824 927.715 456.96 926.414C457.099 925.092 457.379 923.771 457.792 922.507L457.947 922.034C458.276 921.026 458.682 920.045 459.162 919.099C459.648 918.138 460.208 917.217 460.837 916.343L462.247 914.384L463.648 912.829C465.746 910.502 468.023 908.342 470.458 906.37L471.196 905.772L473.501 904.339C475.188 903.29 476.974 902.41 478.834 901.713L479.098 901.614C480.544 901.071 482.034 900.654 483.552 900.367C485.446 900.01 487.372 899.856 489.298 899.91L492.917 900.011L493.449 900.067C496.735 900.413 499.988 901.029 503.173 901.91L504.25 902.208L510.557 904.379L515.818 906.943L520.529 909.952L522.018 911.072C524.128 912.66 526.113 914.409 527.955 916.303L528.832 917.206C530.031 918.439 531.136 919.76 532.138 921.157C533.47 923.016 534.614 925.001 535.553 927.086L535.641 927.28C536.541 929.279 537.261 931.355 537.791 933.482L538.408 935.963L539.273 942.087L539.536 949.153L539.458 954.676L538.831 960.643L538.245 963.837C537.852 965.978 537.279 968.083 536.533 970.129C535.869 971.95 535.069 973.72 534.14 975.422L532.422 978.571L529.465 982.785L525.462 987.392L521.013 991.449L516.068 995.454L510.127 999.354L504.292 1002.26L498.011 1004.62L495.54 1005.21Z" fill="#19B9EB" fill-opacity="0.96"/>
<path d="M539.536 949.153C550.319 936.651 562.293 934.547 567.542 934.269C569.353 934.174 571.166 934.296 572.98 934.322L575.78 934.361L577.887 934.582C580.452 934.852 582.977 935.417 585.412 936.267L585.616 936.338C588.518 937.351 591.259 938.778 593.754 940.573L594.021 940.766C595.693 941.969 597.231 943.347 598.609 944.877L599.188 945.52C600.416 946.884 601.469 948.396 602.322 950.021C603.138 951.576 603.765 953.224 604.19 954.928L604.276 955.275C604.734 957.112 604.96 958.999 604.951 960.893C604.943 962.338 604.798 963.78 604.518 965.199L604.438 965.603C604.059 967.517 603.46 969.381 602.653 971.157L602.325 971.878C601.613 973.447 600.694 974.914 599.593 976.24C598.402 977.675 597.01 978.931 595.461 979.968L594.552 980.576L591.011 982.583C590.878 982.659 590.737 982.72 590.59 982.765C589.047 983.243 587.554 981.898 587.867 980.314L588.187 978.697C588.226 978.503 588.245 978.306 588.246 978.108L588.26 975.37C588.267 974.046 588.155 972.725 587.927 971.421C587.737 970.338 587.467 969.272 587.119 968.229L586.393 966.052C585.955 964.737 585.283 963.512 584.411 962.435C583.518 961.332 582.43 960.403 581.201 959.695L581.069 959.619C579.569 958.754 577.904 958.214 576.182 958.033L575.44 957.955C574.036 957.807 572.618 957.847 571.224 958.075L569.885 958.293C568.432 958.529 567.016 958.949 565.669 959.542C564.564 960.027 563.513 960.627 562.532 961.33L560.612 962.706C559.617 963.419 558.719 964.257 557.937 965.198C556.442 967 555.412 969.141 554.936 971.433L554.64 972.862L554.427 974.888C554.188 977.161 554.402 979.46 555.056 981.651C555.631 983.576 556.536 985.386 557.731 987.001L559.164 988.936C560.231 990.378 561.42 991.724 562.72 992.96L564.142 994.312C565.846 995.934 567.748 997.335 569.802 998.483C572.16 999.801 574.695 1000.77 577.33 1001.37L577.757 1001.46C580.378 1002.05 583.066 1002.29 585.749 1002.16C587.43 1002.08 589.101 1001.86 590.744 1001.49L594.451 1000.68L596.181 1000.29C599.136 999.643 602.011 998.67 604.755 997.392L604.853 997.347C607.316 996.2 609.656 994.808 611.84 993.192C614.007 991.588 616.008 989.771 617.813 987.768L618.294 987.235C619.199 986.231 620.066 985.194 620.835 984.083C621.634 982.927 622.651 981.365 623.262 980.075C623.909 978.708 624.438 976.937 624.839 975.307C625.573 972.324 625.717 969.238 625.858 966.169C626.127 960.293 626.505 956.495 622.289 946.288C617.991 935.883 598.164 923.503 591.352 919.487C589.816 918.581 588.307 917.659 586.83 916.659L586.134 916.189C583.387 914.331 580.798 912.248 578.395 909.962L576.064 907.745L571.562 902.747L568.457 898.913C566.377 896.344 564.513 893.608 562.884 890.733L561.091 887.569L556.955 879.09L553.472 869.172L553.309 868.594C551.957 863.816 551.203 858.889 551.065 853.925L551.062 853.836L551.401 845.828L552.446 835.882L554.265 827.335C554.361 826.883 554.783 826.576 555.244 826.624C555.647 826.667 555.973 826.972 556.041 827.372L558.1 839.493L560.415 848.109C561.279 851.327 562.41 854.468 563.797 857.498L567.028 864.564L569.189 869.129C571.577 874.173 574.656 878.86 578.339 883.053L578.625 883.379L581.385 886.106C584.093 888.783 587.051 891.195 590.217 893.312L594.382 896.096L601.03 899.811L609.17 903.683L619.796 907.817L631.024 911.008L642.802 913.754L653.689 915.401L664.681 916.053L666.69 916.11C669.691 916.193 672.694 916.052 675.674 915.686L677.819 915.423L686.534 913.825L690.171 912.699L693.312 911.521L695.632 910.441C695.847 910.341 696.069 910.258 696.297 910.194L697.686 909.801C698.224 909.649 698.803 909.771 699.233 910.128C699.67 910.491 699.897 911.043 699.812 911.604C699.318 914.853 697.115 926.077 689.77 930.864C681.135 936.493 679.492 937.77 671.871 938.535C669.975 938.726 667.296 938.786 665.046 938.799C662.208 938.814 659.38 938.539 656.579 938.077L652.384 937.385C649.584 936.853 647.152 939.357 647.766 942.14L648.172 943.981L648.893 946.951C649.581 949.782 650.061 952.66 650.331 955.561L650.634 958.819L650.635 968.372L649.799 976.328L648.836 980.599C648.225 983.309 647.309 985.941 646.107 988.445C645.169 990.396 644.062 992.261 642.798 994.018L639.988 997.921L633.133 1005.75L628.636 1009.91C626.438 1011.95 624.091 1013.82 621.615 1015.5L618.296 1017.76L609.765 1022.4L601.888 1025.59L600.078 1026.1C596.113 1027.22 592.043 1027.93 587.933 1028.22L585.505 1028.39L576.999 1028L569.095 1026.67L561.296 1024.34C557.438 1022.93 553.775 1021.04 550.395 1018.71L550.329 1018.66L547.11 1015.81L546.079 1014.68C544.064 1012.47 542.217 1010.11 540.554 1007.63L538.707 1004.87L535.356 998.487L533.41 993.299C532.875 991.873 532.392 990.44 532.072 988.951C530.67 982.421 527.762 962.804 539.536 949.153Z" fill="#19B9EB" fill-opacity="0.96"/>
<path d="M859.703 884.309C857.915 888.223 855.71 891.933 853.128 895.375L852.175 896.646L848.36 900.596C845.814 903.233 843.032 905.63 840.049 907.759L833.357 912.533L824.947 916.924L816.165 920.259L806.304 922.553L796.071 923.793L785.814 923.618L778.024 923.047L771.637 921.744L765.596 920.081L761.33 918.741L755.984 916.359L755.34 916.027C752.681 914.654 750.128 913.085 747.703 911.331L745.615 909.822L739.513 904.624L736.636 901.845L731.228 895.929L728.698 892.79L726.156 888.945L725.707 888.189C724.066 885.431 722.649 882.546 721.47 879.561L721.022 878.426L718.472 872.527C718.452 872.483 718.425 872.443 718.39 872.409C718.229 872.254 717.966 872.279 717.838 872.462L712.563 879.988L708.407 885.011L706.854 886.62C704.882 888.662 702.767 890.562 700.526 892.305L698.31 894.028L697.464 894.531C694.776 896.13 691.868 897.327 688.833 898.083L683.549 899.236L680.032 899.65C677.678 899.927 675.302 899.955 672.942 899.735C671.061 899.559 669.199 899.226 667.374 898.739L665.143 898.143L664.39 897.868C661.812 896.928 659.321 895.767 656.944 894.396L654.94 893.017C654.607 892.788 654.308 892.515 654.051 892.204L652.834 890.736C652.102 889.854 652.151 888.563 652.947 887.738C653.17 887.508 653.44 887.327 653.739 887.209L658.905 885.168L663.469 883.321L669.076 880.394L675.03 877.107L680.972 873.114L688.29 866.975L693.86 861.927L700.459 855.094L705.322 850.058L712.938 840.731L718.793 831.789L725.989 818.58L731.41 805.048L735.442 792.955L737.726 781.954L739.326 772.378L739.885 763.882L740.072 754.331L740.103 753.458C740.24 749.568 739.998 745.673 739.38 741.83L739.118 740.204L738.3 733.853L736.775 727.515L735.61 721.524L732.492 709.613C732.333 709.006 732.711 708.388 733.325 708.254C733.718 708.169 734.126 708.303 734.391 708.605L737.93 712.643L742.259 717.518L748.422 726.251L752.428 732.899L755.355 738.506L758.678 746.581L760.923 753.614L762.1 760.312L763.327 769.838L763.488 779.029L762.259 789.658L759.963 799.953L757.991 808.474L752.357 830.142L749.739 842.211L748.858 852.481L748.936 856.953C748.974 859.153 749.169 861.348 749.518 863.522L749.588 863.959C749.984 866.423 750.601 868.847 751.432 871.2L751.626 871.752C752.152 873.241 752.782 874.691 753.513 876.091C754.244 877.491 755.073 878.837 755.994 880.12L757.872 882.734L759.614 884.695C761.334 886.633 763.239 888.399 765.301 889.969L766.566 890.933C768.19 892.169 769.951 893.213 771.816 894.044C773.504 894.796 775.267 895.369 777.075 895.754L778.969 896.156L779.16 896.177C782.804 896.568 786.476 896.624 790.13 896.345L790.641 896.306L791.478 896.198C795.146 895.726 798.762 894.915 802.281 893.777L805.079 892.871L809.043 891.09C811.308 890.072 813.483 888.864 815.545 887.478C817.438 886.206 819.229 884.788 820.902 883.238L822.469 881.786C824.154 880.225 825.715 878.535 827.139 876.731L829.199 874.122C830.544 872.418 831.63 870.525 832.421 868.504C833.201 866.512 833.686 864.416 833.862 862.284L834.181 858.417L834.107 854.175L833.913 852.388C833.761 850.994 833.488 849.616 833.095 848.27L833.013 847.988C832.709 846.946 832.323 845.931 831.857 844.951C831.103 843.367 830.147 841.888 829.013 840.55L827.472 838.732L826.163 837.468C825.121 836.462 823.961 835.588 822.706 834.865L822.501 834.747C821.519 834.18 820.477 833.723 819.394 833.383L819.314 833.358C818.322 833.046 817.301 832.841 816.267 832.744C815.182 832.643 814.09 832.662 813.01 832.801L811.46 833L807.23 833.782L805.423 834.309C804.053 834.708 802.736 835.271 801.501 835.986C800.641 836.483 799.825 837.051 799.061 837.685L798.062 838.513C797.173 839.251 796.368 840.084 795.662 840.998L795.324 841.437C794.42 842.608 793.731 843.929 793.288 845.34L792.732 847.956C792.451 849.28 792.382 850.64 792.528 851.985C792.661 853.213 792.972 854.415 793.45 855.554L793.681 856.103C794.029 856.931 794.443 857.73 794.919 858.492L796.387 860.845L797.964 863.123C798.845 864.396 799.85 865.579 800.964 866.655L801.989 867.645C802.107 867.759 802.233 867.865 802.367 867.961L803.565 868.827C804.388 869.422 804.602 870.556 804.054 871.411C803.797 871.812 803.4 872.102 802.94 872.225L801.368 872.648C801.016 872.742 800.656 872.805 800.293 872.836L798.281 873.005C796.459 873.159 794.628 873.138 792.81 872.943L789.874 872.628L788.937 872.488C786.729 872.16 784.55 871.659 782.42 870.99L780.771 870.427C779.435 869.97 778.156 869.364 776.958 868.618C775.848 867.927 774.802 867.109 773.861 866.2C772.905 865.277 772.037 864.243 771.295 863.14L771.018 862.727C770.426 861.846 769.902 860.922 769.452 859.962C768.994 858.988 768.613 857.979 768.312 856.946L767.636 854.628L767.274 852.567C766.731 849.481 766.431 846.356 766.376 843.223L766.36 842.274L766.649 839.576C766.861 837.601 767.268 835.651 767.863 833.756L767.947 833.488C768.41 832.014 768.999 830.582 769.708 829.21C770.592 827.497 771.657 825.885 772.885 824.401L775.193 821.611L775.564 821.227C777.86 818.849 780.348 816.666 783.003 814.698L783.901 814.033L789.495 810.399L794.754 807.832L800.026 805.972L801.825 805.489C804.376 804.804 806.976 804.316 809.603 804.031L810.854 803.896C812.564 803.71 814.285 803.652 816.003 803.723C818.287 803.818 820.556 804.139 822.777 804.682L822.984 804.733C825.114 805.254 827.192 805.965 829.195 806.857L831.531 807.898L836.889 810.987L842.619 815.13L846.923 818.591L851.239 822.759L853.395 825.187C854.84 826.815 856.146 828.562 857.299 830.41C858.326 832.055 859.227 833.774 859.997 835.554L861.42 838.847L862.921 843.771L864.086 849.762L864.545 855.766L864.656 862.129L864.072 869.211L862.769 875.599L860.759 881.999L859.703 884.309Z" fill="#00A859"/>
<path d="M838.806 815.531C835.593 799.336 841.307 788.605 844.32 784.298C845.359 782.812 846.572 781.458 847.709 780.045L849.464 777.862L850.936 776.338C852.727 774.483 854.728 772.841 856.896 771.446L857.078 771.329C859.663 769.666 862.474 768.384 865.425 767.524L865.742 767.431C867.719 766.855 869.751 766.492 871.806 766.348L872.668 766.287C874.499 766.159 876.339 766.26 878.145 766.588C879.873 766.903 881.558 767.423 883.162 768.138L883.488 768.283C885.218 769.054 886.844 770.037 888.33 771.21C889.465 772.106 890.512 773.108 891.457 774.202L891.727 774.515C893.002 775.992 894.102 777.611 895.004 779.34L895.371 780.042C896.168 781.57 896.758 783.197 897.126 784.881C897.523 786.703 897.656 788.573 897.52 790.432L897.44 791.523L896.841 795.549C896.818 795.701 896.779 795.849 896.725 795.993C896.151 797.503 894.172 797.852 893.117 796.629L892.04 795.381C891.91 795.232 891.767 795.095 891.612 794.972L889.463 793.275C888.424 792.455 887.314 791.73 886.146 791.107C885.176 790.59 884.169 790.146 883.134 789.778L880.971 789.01C879.665 788.546 878.286 788.321 876.9 788.345C875.481 788.37 874.08 788.656 872.764 789.188L872.624 789.245C871.019 789.895 869.568 790.874 868.365 792.12L867.847 792.656C866.866 793.672 866.025 794.814 865.345 796.052L864.693 797.242C863.985 798.532 863.444 799.907 863.081 801.333C862.784 802.502 862.609 803.7 862.56 804.905L862.462 807.266C862.411 808.489 862.518 809.713 862.779 810.908C863.278 813.196 864.331 815.325 865.845 817.111L866.788 818.225L868.253 819.639C869.898 821.228 871.841 822.474 873.97 823.308C875.841 824.04 877.825 824.442 879.833 824.494L882.24 824.556C884.033 824.603 885.826 824.494 887.6 824.231L889.541 823.944C891.868 823.599 894.143 822.963 896.312 822.051C898.802 821.004 901.128 819.604 903.219 817.894L903.557 817.616C905.637 815.915 907.477 813.941 909.027 811.747C909.998 810.373 910.852 808.92 911.578 807.402L913.216 803.977L913.98 802.379C915.286 799.649 916.289 796.784 916.972 793.836L916.997 793.73C917.609 791.084 917.954 788.383 918.024 785.667C918.094 782.972 917.894 780.276 917.427 777.621L917.303 776.913C917.069 775.583 916.786 774.261 916.384 772.971C915.965 771.63 915.36 769.866 914.72 768.59C914.042 767.239 912.971 765.731 911.934 764.412C910.034 761.997 907.692 759.984 905.36 757.984C900.895 754.154 898.135 751.518 887.496 748.556C876.651 745.537 854.689 753.539 847.33 756.434C845.671 757.087 844.015 757.708 842.318 758.257L841.519 758.516C838.363 759.537 835.128 760.294 831.847 760.78L828.665 761.252L821.955 761.723L817.022 761.809C813.717 761.867 810.414 761.651 807.145 761.165L803.548 760.63L794.32 758.669L784.36 755.307L783.804 755.08C779.207 753.204 774.86 750.764 770.864 747.817L770.792 747.764L764.69 742.567L757.496 735.62L751.88 728.925C751.583 728.571 751.601 728.049 751.923 727.716C752.204 727.424 752.646 727.356 753.003 727.548L763.822 733.388L772.036 736.868C775.105 738.169 778.276 739.211 781.518 739.984L789.075 741.788L794.003 742.895C799.448 744.12 805.037 744.578 810.608 744.258L811.041 744.233L814.889 743.737C818.666 743.251 822.388 742.406 826.005 741.214L830.763 739.645L837.784 736.694L845.846 732.664L855.646 726.835L865.073 719.952L874.488 712.362L882.489 704.796L889.77 696.536L891.052 694.988C892.965 692.675 894.702 690.221 896.249 687.648L897.362 685.795L901.468 677.944L902.821 674.385L903.826 671.185L904.403 668.691C904.457 668.46 904.528 668.234 904.618 668.015L905.163 666.679C905.374 666.161 905.827 665.78 906.374 665.661C906.929 665.54 907.503 665.701 907.893 666.114C910.148 668.503 917.638 677.149 916.888 685.884C916.007 696.154 916.002 698.235 911.913 704.712C910.896 706.323 909.294 708.471 907.919 710.252C906.184 712.498 904.225 714.557 902.137 716.48L899.009 719.359C896.866 721.238 897.341 724.696 899.913 725.926L901.613 726.74L904.398 728C907.052 729.201 909.616 730.594 912.068 732.168L914.822 733.935L922.35 739.815L928.105 745.372L930.878 748.761C932.637 750.911 934.147 753.253 935.38 755.742C936.341 757.681 937.128 759.702 937.734 761.78L939.08 766.397L941.027 776.618L941.541 782.726C941.793 785.711 941.82 788.711 941.624 791.7L941.36 795.707L939.759 805.282L937.427 813.456L936.716 815.197C935.159 819.012 933.214 822.656 930.91 826.073L929.549 828.091L924.004 834.553L918.087 839.96L911.451 844.673C907.967 846.847 904.221 848.568 900.302 849.795L900.225 849.819L895.996 850.6L894.47 850.717C891.489 850.944 888.495 850.949 885.514 850.73L882.203 850.487L875.108 849.197L869.821 847.536C868.369 847.08 866.942 846.579 865.572 845.914C859.563 842.998 842.315 833.213 838.806 815.531Z" fill="#00A859"/>
<path d="M1003.21 565.96C1004.21 570.145 1004.75 574.425 1004.84 578.727L1004.87 580.316L1004.3 585.777C1003.91 589.422 1003.2 593.024 1002.16 596.538L999.823 604.421L995.899 613.058L991.032 621.093L984.674 628.972L977.373 636.248L969.182 642.426L962.693 646.772L956.857 649.678L951.073 652.086L946.886 653.657L941.207 655.071L940.495 655.206C937.554 655.761 934.576 656.096 931.586 656.207L929.012 656.303L921.003 655.964L917.025 655.546L909.121 654.213L905.196 653.297L900.825 651.832L900.005 651.514C897.014 650.35 894.122 648.949 891.355 647.323L890.303 646.704L884.661 643.626C884.619 643.603 884.573 643.588 884.525 643.583C884.302 643.56 884.111 643.741 884.122 643.965L884.599 653.143L884.417 659.66L884.183 661.884C883.886 664.707 883.389 667.506 882.696 670.26L882.011 672.982L881.654 673.899C880.52 676.814 878.966 679.547 877.04 682.011L873.586 686.173L871.069 688.664C869.385 690.332 867.53 691.818 865.534 693.097C863.944 694.116 862.271 695 860.534 695.74L858.408 696.644L857.646 696.891C855.036 697.737 852.358 698.356 849.641 698.739L847.212 698.886C846.81 698.91 846.406 698.879 846.012 698.793L844.149 698.385C843.029 698.14 842.273 697.093 842.393 695.953C842.426 695.634 842.528 695.326 842.69 695.049L845.505 690.26L847.964 685.994L850.58 680.236L853.249 673.981L855.472 667.176L857.46 657.832L858.741 650.426L859.734 640.978L860.466 634.016L860.726 621.977L859.834 611.326L857.372 596.487L853.313 582.486L849.045 570.474L844.071 560.399L839.438 551.868L834.647 544.829L828.914 537.188L828.401 536.48C826.114 533.331 823.525 530.411 820.672 527.763L819.465 526.642L814.91 522.141L809.806 518.086L805.2 514.082L795.41 506.617C794.91 506.236 794.829 505.516 795.23 505.033C795.486 504.723 795.891 504.578 796.286 504.653L801.561 505.656L807.973 506.832L818.206 509.919L825.456 512.692L831.214 515.308L838.804 519.625L844.903 523.785L849.955 528.338L856.786 535.09L862.571 542.233L868.147 551.366L872.676 560.892L876.368 568.821L885.269 589.364L890.636 600.486L896.264 609.122L899.079 612.597C900.464 614.308 901.969 615.918 903.582 617.415L903.906 617.717C905.736 619.415 907.714 620.945 909.818 622.288L910.311 622.603C911.642 623.453 913.031 624.208 914.469 624.861C915.906 625.514 917.389 626.064 918.904 626.508L921.993 627.411L924.573 627.885C927.122 628.352 929.71 628.572 932.302 628.54L933.892 628.52C935.933 628.495 937.964 628.233 939.944 627.74C941.738 627.293 943.48 626.659 945.141 625.849L946.882 625L947.045 624.898C950.157 622.963 953.085 620.747 955.793 618.277L956.171 617.932L956.765 617.332C959.364 614.701 961.715 611.836 963.787 608.772L965.434 606.337L967.461 602.493C968.619 600.296 969.59 598.004 970.361 595.644C971.069 593.475 971.608 591.255 971.972 589.004L972.313 586.895C972.679 584.627 972.869 582.334 972.881 580.037L972.897 576.712C972.908 574.541 972.599 572.381 971.978 570.302C971.366 568.251 970.458 566.301 969.284 564.513L967.154 561.27L964.484 557.972L963.231 556.683C962.254 555.678 961.19 554.761 960.052 553.942L959.813 553.77C958.933 553.136 958.003 552.574 957.033 552.089C955.464 551.305 953.799 550.727 952.082 550.371L949.749 549.888L947.938 549.698C946.499 549.546 945.046 549.572 943.613 549.774L943.378 549.808C942.255 549.966 941.152 550.247 940.09 550.646L940.011 550.675C939.038 551.04 938.107 551.507 937.232 552.068C936.315 552.655 935.466 553.343 934.7 554.118L933.602 555.229L930.75 558.449L929.65 559.977C928.816 561.135 928.125 562.39 927.592 563.713C927.221 564.634 926.928 565.584 926.716 566.554L926.438 567.822C926.192 568.951 926.07 570.103 926.077 571.258L926.081 571.812C926.089 573.291 926.36 574.756 926.879 576.141L928.052 578.545C928.645 579.761 929.428 580.875 930.371 581.845C931.232 582.731 932.217 583.487 933.296 584.089L933.816 584.38C934.6 584.818 935.418 585.193 936.262 585.5L938.867 586.451L941.512 587.275C942.991 587.736 944.511 588.049 946.051 588.211L947.468 588.36C947.631 588.377 947.796 588.383 947.96 588.377L949.438 588.322C950.453 588.284 951.32 589.046 951.414 590.057C951.458 590.531 951.324 591.004 951.038 591.384L950.059 592.685C949.84 592.976 949.595 593.247 949.328 593.495L947.846 594.867C946.506 596.11 945.049 597.221 943.497 598.186L940.989 599.745L940.165 600.212C938.223 601.313 936.197 602.26 934.107 603.044L932.461 603.616C931.127 604.078 929.746 604.388 928.342 604.538C927.042 604.676 925.715 604.676 924.414 604.539C923.092 604.4 921.771 604.12 920.507 603.707L920.034 603.553C919.026 603.223 918.045 602.817 917.099 602.338C916.138 601.852 915.217 601.292 914.343 600.663L912.384 599.253L910.829 597.851C908.502 595.753 906.342 593.476 904.37 591.041L903.772 590.303L902.339 587.999C901.29 586.312 900.41 584.526 899.713 582.666L899.614 582.402C899.071 580.956 898.654 579.465 898.367 577.947C898.01 576.054 897.856 574.127 897.91 572.201L898.011 568.582L898.067 568.051C898.413 564.764 899.029 561.512 899.91 558.326L900.208 557.25L902.379 550.942L904.943 545.681L907.952 540.97L909.072 539.482C910.66 537.371 912.409 535.386 914.303 533.545L915.206 532.667C916.439 531.468 917.76 530.364 919.157 529.362C921.016 528.03 923.001 526.886 925.086 525.947L925.28 525.859C927.279 524.958 929.355 524.239 931.482 523.709L933.963 523.091L940.087 522.226L947.153 521.964L952.676 522.041L958.643 522.668L961.837 523.255C963.978 523.648 966.083 524.22 968.129 524.966C969.951 525.63 971.72 526.43 973.422 527.359L976.571 529.078L980.785 532.034L985.392 536.038L989.449 540.486L993.454 545.432L997.354 551.372L1000.26 557.208L1002.62 563.489L1003.21 565.96Z" fill="#FBC41B"/>
<path d="M947.153 521.963C934.651 511.18 932.547 499.206 932.269 493.957C932.174 492.146 932.296 490.333 932.322 488.519L932.361 485.719L932.582 483.612C932.852 481.047 933.417 478.522 934.267 476.087L934.338 475.883C935.351 472.981 936.778 470.24 938.573 467.745L938.766 467.478C939.969 465.806 941.347 464.268 942.877 462.89L943.52 462.311C944.884 461.083 946.396 460.03 948.021 459.177C949.576 458.361 951.224 457.734 952.928 457.309L953.275 457.223C955.112 456.765 956.999 456.539 958.893 456.548C960.338 456.556 961.78 456.701 963.199 456.981L963.603 457.061C965.517 457.44 967.381 458.039 969.157 458.846L969.878 459.174C971.447 459.886 972.914 460.805 974.24 461.906C975.675 463.097 976.931 464.489 977.968 466.038L978.576 466.947L980.583 470.488C980.659 470.621 980.72 470.762 980.765 470.909C981.243 472.452 979.898 473.945 978.314 473.632L976.697 473.312C976.503 473.273 976.306 473.254 976.108 473.253L973.37 473.239C972.046 473.232 970.725 473.344 969.421 473.572C968.338 473.762 967.272 474.032 966.229 474.38L964.052 475.106C962.737 475.544 961.512 476.216 960.435 477.088C959.332 477.981 958.403 479.069 957.695 480.298L957.619 480.43C956.754 481.93 956.214 483.595 956.033 485.317L955.955 486.059C955.807 487.463 955.847 488.881 956.075 490.275L956.293 491.614C956.529 493.067 956.949 494.483 957.542 495.83C958.027 496.935 958.627 497.986 959.33 498.967L960.706 500.887C961.419 501.882 962.257 502.78 963.198 503.562C965 505.057 967.141 506.087 969.433 506.563L970.862 506.859L972.888 507.072C975.161 507.311 977.46 507.097 979.651 506.443C981.576 505.868 983.386 504.963 985.001 503.768L986.936 502.335C988.378 501.268 989.724 500.079 990.96 498.779L992.312 497.357C993.934 495.653 995.335 493.751 996.483 491.697C997.801 489.339 998.772 486.804 999.366 484.169L999.462 483.742C1000.05 481.121 1000.29 478.433 1000.16 475.75C1000.08 474.069 999.856 472.398 999.493 470.755L998.676 467.048L998.294 465.318C997.643 462.363 996.67 459.488 995.393 456.744L995.347 456.646C994.2 454.183 992.808 451.843 991.192 449.659C989.588 447.492 987.771 445.491 985.768 443.686L985.235 443.205C984.231 442.3 983.194 441.433 982.083 440.664C980.927 439.865 979.365 438.848 978.075 438.237C976.708 437.59 974.937 437.061 973.307 436.66C970.324 435.926 967.238 435.782 964.169 435.641C958.293 435.372 954.495 434.995 944.288 439.21C933.883 443.508 921.503 463.335 917.487 470.147C916.581 471.683 915.659 473.192 914.659 474.669L914.189 475.365C912.331 478.112 910.248 480.701 907.962 483.104L905.745 485.435L900.747 489.937L896.913 493.042C894.344 495.122 891.609 496.986 888.733 498.615L885.569 500.408L877.09 504.544L867.172 508.027L866.594 508.19C861.816 509.542 856.889 510.296 851.926 510.434L851.836 510.437L843.828 510.098L833.883 509.053L825.335 507.234C824.883 507.138 824.576 506.716 824.624 506.255C824.667 505.852 824.972 505.526 825.372 505.458L837.493 503.399L846.109 501.084C849.327 500.22 852.468 499.089 855.499 497.702L862.564 494.471L867.129 492.31C872.173 489.922 876.86 486.843 881.053 483.16L881.379 482.874L884.106 480.114C886.783 477.406 889.195 474.448 891.312 471.282L894.096 467.117L897.811 460.469L901.683 452.329L905.817 441.703L909.008 430.475L911.754 418.697L913.401 407.81L914.053 396.818L914.11 394.809C914.193 391.808 914.052 388.805 913.686 385.825L913.423 383.68L911.825 374.965L910.699 371.328L909.521 368.187L908.441 365.867C908.341 365.652 908.258 365.43 908.194 365.202L907.801 363.813C907.649 363.275 907.771 362.696 908.128 362.266C908.491 361.829 909.043 361.602 909.604 361.687C912.853 362.181 924.077 364.384 928.864 371.729C934.493 380.364 935.77 382.007 936.535 389.628C936.726 391.524 936.786 394.203 936.799 396.453C936.814 399.291 936.539 402.119 936.077 404.92L935.385 409.115C934.853 411.915 937.357 414.347 940.14 413.733L941.981 413.327L944.951 412.606C947.782 411.918 950.66 411.438 953.561 411.168L956.819 410.865L966.372 410.864L974.328 411.7L978.599 412.663C981.309 413.274 983.941 414.19 986.445 415.392C988.396 416.33 990.261 417.437 992.018 418.701L995.921 421.511L1003.75 428.366L1007.91 432.863C1009.95 435.061 1011.82 437.408 1013.5 439.884L1015.76 443.203L1020.4 451.734L1023.59 459.612L1024.1 461.421C1025.22 465.386 1025.93 469.456 1026.22 473.566L1026.39 475.994L1026 484.5L1024.67 492.404L1022.34 500.203C1020.93 504.061 1019.04 507.724 1016.71 511.104L1016.66 511.17L1013.81 514.389L1012.68 515.42C1010.47 517.435 1008.11 519.282 1005.63 520.945L1002.87 522.792L996.487 526.143L991.299 528.089C989.873 528.624 988.44 529.107 986.951 529.427C980.421 530.829 960.804 533.737 947.153 521.963Z" fill="#FBC41B"/>
</svg>
